<svg width="58" height="41" viewBox="0 0 58 41" fill="none" xmlns="http://www.w3.org/2000/svg">
<rect x="8.98999" y="0.800049" width="40" height="40" rx="8" fill="#2DBD8F"/>
<path d="M14.8139 29V11.5455H21.7003C23.0241 11.5455 24.152 11.7983 25.0838 12.304C26.0156 12.804 26.7259 13.5 27.2145 14.392C27.7088 15.2784 27.956 16.3011 27.956 17.4602C27.956 18.6193 27.706 19.642 27.206 20.5284C26.706 21.4148 25.9815 22.1051 25.0327 22.5994C24.0895 23.0937 22.9474 23.3409 21.6065 23.3409H17.2173V20.3835H21.0099C21.7202 20.3835 22.3054 20.2614 22.7656 20.017C23.2315 19.767 23.5781 19.4233 23.8054 18.9858C24.0384 18.5426 24.1548 18.0341 24.1548 17.4602C24.1548 16.8807 24.0384 16.375 23.8054 15.9432C23.5781 15.5057 23.2315 15.1676 22.7656 14.929C22.2997 14.6847 21.7088 14.5625 20.9929 14.5625H18.5043V29H14.8139ZM35.0213 26.3409V14.2727H38.0724V26.3409H35.0213ZM30.5128 21.8324V18.7812H42.581V21.8324H30.5128Z" fill="white"/>
</svg>
